<svg xmlns="http://www.w3.org/2000/svg" viewBox="0 0 11.493 11.209"><path
        d="M5.746-.002a5.75 5.75 0 0 0-1.816 11.2c.288.053.392-.125.392-.277l-.008-.977c-1.598.347-1.936-.77-1.936-.77-.26-.664-.638-.84-.638-.84-.522-.356.04-.35.04-.35.577.04.88.592.88.592.513.878 1.345.624 1.673.477.052-.37.2-.624.365-.768C3.42 8.14 2.08 7.646 2.08 5.444a2.22 2.22 0 0 1 .592-1.542c-.06-.145-.256-.73.056-1.52 0 0 .482-.155 1.58.59a5.52 5.52 0 0 1 1.439-.193c.488.002.98.066 1.44.193 1.097-.743 1.58-.59 1.58-.59.314.79.116 1.375.058 1.52.368.402.59.914.59 1.542 0 2.208-1.344 2.693-2.624 2.836.206.177.4.528.4 1.064L7.17 10.92c0 .154.104.333.395.277A5.75 5.75 0 0 0 5.746-.002" fill="#1b1817" fill-rule="evenodd"/></svg>
